<svg xmlns="http://www.w3.org/2000/svg" width="1080" height="1920" viewBox="0 0 1080 1920">

<defs>
  <linearGradient id="blue" x1="0" y1="0" x2="1" y2="1"><stop stop-color="#7ad4ff"/><stop offset=".5" stop-color="#2da4f5"/><stop offset="1" stop-color="#1465c1"/></linearGradient>
  <linearGradient id="gold" x1="0" y1="0" x2="1" y2="1"><stop stop-color="#ffe29d"/><stop offset=".5" stop-color="#efbd63"/><stop offset="1" stop-color="#a76a20"/></linearGradient>
  <radialGradient id="ambientBlue"><stop stop-color="#1e8edf" stop-opacity=".32"/><stop offset="1" stop-color="#1e8edf" stop-opacity="0"/></radialGradient>
  <radialGradient id="ambientGold"><stop stop-color="#cb852a" stop-opacity=".25"/><stop offset="1" stop-color="#cb852a" stop-opacity="0"/></radialGradient>
  <filter id="shadow" x="-30%" y="-30%" width="160%" height="180%"><feDropShadow dx="0" dy="18" stdDeviation="24" flood-color="#000" flood-opacity=".42"/></filter>
</defs>

    <rect width="1080" height="1920" fill="#07090d"/>
    <circle cx="30" cy="260" r="360" fill="url(#ambientBlue)"/>
    <circle cx="1080" cy="1580" r="430" fill="url(#ambientGold)"/>
    <rect x="0" y="0" width="1080" height="138" fill="#090d13"/>
    <line x1="0" y1="137" x2="1080" y2="137" stroke="#202a38" stroke-width="2"/>

    <g transform="translate(42 25) scale(0.7333333333333333)">
      <path d="M24 91V29c0-7 4-11 10-11 4 0 7 2 10 6l32 44V27c0-6 4-10 10-10s10 4 10 10v64c0 7-4 11-10 11-4 0-8-2-11-6L44 53v38c0 7-4 11-10 11S24 98 24 91Z" fill="url(#blue)"/>
      <path d="M42 24 79 76V28c0-7 4-11 10-11 5 0 9 4 9 10v64c0 7-4 11-10 11-4 0-8-2-11-6L36 39c-4-6-2-14 4-17l2 2Z" fill="url(#gold)"/>
      <circle cx="103" cy="24" r="3" fill="#fff"/><path d="M103 14v5M103 29v5M93 24h5M108 24h5" stroke="#fff" stroke-width="2.6" stroke-linecap="round"/>
    </g>

    <text x="142" y="83" fill="#f5f7fb" font-family="Inter,Segoe UI,Arial,sans-serif" font-size="34" font-weight="800" text-anchor="start" letter-spacing="2">NOTTLE</text>
    <text x="300" y="83" fill="#efbd63" font-family="Inter,Segoe UI,Arial,sans-serif" font-size="34" font-weight="800" text-anchor="start" letter-spacing="2">AI</text>
    <rect x="950" y="39" width="74" height="74" rx="37" fill="#17212e" stroke="#2c3a4c" stroke-width="2"/>
    <text x="987" y="88" fill="#f5f7fb" font-family="Inter,Segoe UI,Arial,sans-serif" font-size="24" font-weight="750" text-anchor="middle" letter-spacing="0">DN</text>
    <text x="52" y="218" fill="#3da9ff" font-family="Inter,Segoe UI,Arial,sans-serif" font-size="22" font-weight="750" text-anchor="start" letter-spacing="3">CALL DETAILS</text>
    <text x="52" y="278" fill="#f5f7fb" font-family="Inter,Segoe UI,Arial,sans-serif" font-size="48" font-weight="760" text-anchor="start" letter-spacing="0">Sarah Adams</text>

    <text x="52" y="328" fill="#8995a7" font-family="Inter,Segoe UI,Arial,sans-serif" font-size="27" font-weight="500" text-anchor="start" letter-spacing="0">Call details</text>
    <rect x="52" y="376" width="976" height="1300" rx="34" fill="#0f151e" stroke="#273648" stroke-width="2"/>
    <rect x="86" y="418" width="86" height="86" rx="43" fill="#17212e"/>
    <text x="129" y="474" fill="#f5f7fb" font-family="Inter,Segoe UI,Arial,sans-serif" font-size="26" font-weight="750" text-anchor="middle" letter-spacing="0">SA</text>
    <text x="200" y="456" fill="#f5f7fb" font-family="Inter,Segoe UI,Arial,sans-serif" font-size="36" font-weight="750" text-anchor="start" letter-spacing="0">Sarah Adams</text>
    <text x="200" y="494" fill="#8995a7" font-family="Inter,Segoe UI,Arial,sans-serif" font-size="22" font-weight="500" text-anchor="start" letter-spacing="0">Today, 9:42 am · 3m 06s</text>
    <rect x="803" y="432" width="164" height="46" rx="17" fill="#3d3020"/>
    <text x="885" y="463" fill="#efbd63" font-family="Inter,Segoe UI,Arial,sans-serif" font-size="17" font-weight="750" text-anchor="middle" letter-spacing="1">BOOKING</text>
    <line x1="86" y1="544" x2="994" y2="544" stroke="#202a38" stroke-width="2"/>
    <text x="86" y="598" fill="#3da9ff" font-family="Inter,Segoe UI,Arial,sans-serif" font-size="19" font-weight="750" text-anchor="start" letter-spacing="2">AI SUMMARY</text>
    <rect x="86" y="627" width="908" height="198" rx="23" fill="#111b27" stroke="#263a4e" stroke-width="2"/>
    <text x="120" y="680" fill="#f5f7fb" font-family="Inter,Segoe UI,Arial,sans-serif" font-size="27" font-weight="700" text-anchor="start" letter-spacing="0">Garden tidy-up and green waste removal</text>
    <text x="120" y="721" fill="#f5f7fb" font-family="Inter,Segoe UI,Arial,sans-serif" font-size="27" font-weight="700" text-anchor="start" letter-spacing="0">requested for a Subiaco property next week.</text>
    <text x="120" y="777" fill="#8995a7" font-family="Inter,Segoe UI,Arial,sans-serif" font-size="22" font-weight="500" text-anchor="start" letter-spacing="0">Follow up to confirm access and arrange a quote.</text>
    <text x="86" y="898" fill="#f5f7fb" font-family="Inter,Segoe UI,Arial,sans-serif" font-size="31" font-weight="740" text-anchor="start" letter-spacing="0">Transcript</text>
    <text x="86" y="949" fill="#52d997" font-family="Inter,Segoe UI,Arial,sans-serif" font-size="17" font-weight="750" text-anchor="start" letter-spacing="2">CALLER</text>
    <rect x="86" y="972" width="784" height="142" rx="22" fill="#13221d"/>
    <text x="118" y="1019" fill="#f5f7fb" font-family="Inter,Segoe UI,Arial,sans-serif" font-size="24" font-weight="500" text-anchor="start" letter-spacing="0">Hi, I'm Sarah. Could I get a quote for a</text>
    <text x="118" y="1056" fill="#f5f7fb" font-family="Inter,Segoe UI,Arial,sans-serif" font-size="24" font-weight="500" text-anchor="start" letter-spacing="0">garden tidy-up in Subiaco next week?</text>
    <text x="994" y="1174" fill="#3da9ff" font-family="Inter,Segoe UI,Arial,sans-serif" font-size="17" font-weight="750" text-anchor="end" letter-spacing="2">NOTTLE AI</text>
    <rect x="210" y="1197" width="784" height="142" rx="22" fill="#111b27"/>
    <text x="242" y="1244" fill="#f5f7fb" font-family="Inter,Segoe UI,Arial,sans-serif" font-size="24" font-weight="500" text-anchor="start" letter-spacing="0">Certainly, Sarah. What is the best number</text>
    <text x="242" y="1281" fill="#f5f7fb" font-family="Inter,Segoe UI,Arial,sans-serif" font-size="24" font-weight="500" text-anchor="start" letter-spacing="0">for the team to call you back on?</text>
    <text x="86" y="1399" fill="#52d997" font-family="Inter,Segoe UI,Arial,sans-serif" font-size="17" font-weight="750" text-anchor="start" letter-spacing="2">CALLER</text>
    <rect x="86" y="1422" width="700" height="100" rx="22" fill="#13221d"/>
    <text x="118" y="1483" fill="#f5f7fb" font-family="Inter,Segoe UI,Arial,sans-serif" font-size="24" font-weight="500" text-anchor="start" letter-spacing="0">This number is best, thank you.</text>
    <rect x="86" y="1574" width="290" height="62" rx="18" fill="#151b24" stroke="#2c3a4c" stroke-width="2"/>
    <text x="231" y="1615" fill="#ff6d7a" font-family="Inter,Segoe UI,Arial,sans-serif" font-size="22" font-weight="680" text-anchor="middle" letter-spacing="0">Delete call</text>

    <rect x="0" y="1762" width="1080" height="158" fill="#090d13"/>
    <line x1="0" y1="1762" x2="1080" y2="1762" stroke="#202a38" stroke-width="2"/>
    <text x="135" y="1824" fill="#768296" font-family="Inter,Segoe UI,Arial,sans-serif" font-size="40" font-weight="500" text-anchor="middle" letter-spacing="0">⌂</text><text x="135" y="1871" fill="#768296" font-family="Inter,Segoe UI,Arial,sans-serif" font-size="22" font-weight="650" text-anchor="middle" letter-spacing="0">Home</text><text x="405" y="1824" fill="#3da9ff" font-family="Inter,Segoe UI,Arial,sans-serif" font-size="40" font-weight="500" text-anchor="middle" letter-spacing="0">↗</text><text x="405" y="1871" fill="#3da9ff" font-family="Inter,Segoe UI,Arial,sans-serif" font-size="22" font-weight="650" text-anchor="middle" letter-spacing="0">Calls</text><text x="675" y="1824" fill="#768296" font-family="Inter,Segoe UI,Arial,sans-serif" font-size="40" font-weight="500" text-anchor="middle" letter-spacing="0">✦</text><text x="675" y="1871" fill="#768296" font-family="Inter,Segoe UI,Arial,sans-serif" font-size="22" font-weight="650" text-anchor="middle" letter-spacing="0">Assistant</text><text x="945" y="1824" fill="#768296" font-family="Inter,Segoe UI,Arial,sans-serif" font-size="40" font-weight="500" text-anchor="middle" letter-spacing="0">⚙</text><text x="945" y="1871" fill="#768296" font-family="Inter,Segoe UI,Arial,sans-serif" font-size="22" font-weight="650" text-anchor="middle" letter-spacing="0">Settings</text>
    </svg>
